PathFileType	4	(X/Y/Z)	./resultDataOpenSim/trcMotMarkerGrf/sub10/qtm-13-02.trc
DataRate	CameraRate	NumFrames	NumMarkers	Units	OrigDataRate	OrigDataStartFrame	OrigNumFrames
250.000000	250.000000	8	24	m	250.000000	235	468
Frame#	Time	L.Toe.Tip			R.Toe.Tip			L.Ankle.Lat			R.Ankle.Lat			L.Ankle.Med			R.Ankle.Med			L.Heel			R.Heel			L.Knee.Lat			R.Knee.Lat			L.Knee.Med			R.Knee.Med			L.Thigh.Upper			R.Thigh.Upper			L.ASIS			R.ASIS			V.Sacral			L.Acromium			R.Acromium			C7			L.Elbow			R.Elbow			L.Wrist.Lat			R.Wrist.Lat
		X1	Y1	Z1	X2	Y2	Z2	X3	Y3	Z3	X4	Y4	Z4	X5	Y5	Z5	X6	Y6	Z6	X7	Y7	Z7	X8	Y8	Z8	X9	Y9	Z9	X10	Y10	Z10	X11	Y11	Z11	X12	Y12	Z12	X13	Y13	Z13	X14	Y14	Z14	X15	Y15	Z15	X16	Y16	Z16	X17	Y17	Z17	X18	Y18	Z18	X19	Y19	Z19	X20	Y20	Z20	X21	Y21	Z21	X22	Y22	Z22	X23	Y23	Z23	X24	Y24	Z24

235	0.936	-0.0071861793	-0.0078436005	-0.10205599	0.26198795	0.096494305	0.12147999	-0.13878864	0.021199893	-0.13909029	0.1264524	0.14191094	0.12609017	-0.13288015	0.04890061	-0.056653162	0.16620408	0.14937933	0.043864899	-0.20815964	-0.0033596615	-0.097802621	0.081254028	0.115761	0.074658125	-0.038147258	0.39487432	-0.17950022	0.26406565	0.50492858	0.1112297	-0.038164422	0.37887008	-0.059164554	0.29213967	0.50917063	-0.017559394	0.022098925	0.78719914	-0.24741539	0.013502822	0.82390705	0.13228031	0.088338963	0.89386399	-0.1796642	0.08435397	0.91755952	0.058607248	-0.11330312	0.92684439	-0.069936931	0.084510554	1.3700512	-0.23426961	0.016653703	1.393287	0.072899147	-0.026978483	1.4057541	-0.10399792	0.053666467	1.0444873	-0.36637533	-0.12212338	1.0954542	0.19159777	0.2552454	0.90949743	-0.4130305	-0.026326826	0.95721992	0.3761255
236	0.94	-0.0072066957	-0.0078846936	-0.10197236	0.28355544	0.095246649	0.12004282	-0.13889719	0.021699692	-0.13874481	0.14674724	0.13684659	0.12535077	-0.13250822	0.049363401	-0.056438672	0.18611406	0.14585863	0.042891644	-0.20807141	-0.0027556262	-0.097099295	0.10261015	0.10947813	0.073639155	-0.037497113	0.39507645	-0.17943223	0.27218967	0.505339	0.11054966	-0.037705984	0.37904639	-0.059016126	0.29936917	0.51031778	-0.018004046	0.026777462	0.78691309	-0.24725902	0.021479763	0.8239873	0.13260669	0.092658058	0.89370547	-0.18025215	0.091354068	0.91731457	0.058258281	-0.10518527	0.92656265	-0.06831104	0.09030667	1.370107	-0.23425295	0.02268081	1.3933049	0.072757399	-0.020797056	1.4056226	-0.10360604	0.063816377	1.0452347	-0.36796659	-0.11750736	1.0968506	0.19195247	0.26765395	0.91292434	-0.41314002	-0.02541147	0.95910831	0.37867443
237	0.944	-0.0072670456	-0.0079146105	-0.10186234	0.30504324	0.094075348	0.11839997	-0.13897342	0.022238593	-0.13844043	0.16718376	0.13196962	0.12442669	-0.13210108	0.049819909	-0.056200372	0.20604564	0.14252354	0.04182168	-0.20797311	-0.0021355617	-0.096480558	0.12388684	0.10355361	0.072566552	-0.036760956	0.39529895	-0.17935212	0.28011655	0.50557165	0.10993388	-0.037440368	0.37919786	-0.058690441	0.30650752	0.51120724	-0.018370173	0.03106427	0.78657776	-0.24716066	0.029533971	0.82402357	0.13288773	0.09688827	0.89356654	-0.18094679	0.098334006	0.9170397	0.057909306	-0.097768824	0.92621171	-0.066378542	0.096142503	1.3701183	-0.23423979	0.028757724	1.3932638	0.072592536	-0.014610812	1.4054348	-0.10329545	0.073894184	1.0459592	-0.36948216	-0.11287193	1.0981873	0.19229693	0.27993729	0.91637514	-0.41320457	-0.024513088	0.96102958	0.38117658
238	0.948	-0.0073118281	-0.0079215575	-0.10177415	0.32646722	0.092956188	0.11654919	-0.13901674	0.02276802	-0.13813198	0.18773816	0.12729372	0.12333546	-0.13169784	0.050288441	-0.05593686	0.22595698	0.13936276	0.040695425	-0.20786829	-0.0014760109	-0.095910533	0.14508303	0.098012523	0.071396867	-0.035908979	0.39556107	-0.17926841	0.28785924	0.50562979	0.1093939	-0.03730288	0.37931843	-0.058196893	0.31354312	0.51183249	-0.018661194	0.035401782	0.78620707	-0.24707252	0.037656699	0.82402461	0.13312521	0.10122175	0.89344472	-0.18169053	0.10526921	0.91673331	0.057541718	-0.091012964	0.92587735	-0.064305133	0.10199701	1.3700893	-0.23422177	0.034889679	1.3931686	0.072405978	-0.0084882232	1.4051784	-0.1031815	0.083806569	1.0464887	-0.37091543	-0.10822444	1.0994501	0.19263806	0.29210296	0.91984366	-0.41322255	-0.023603142	0.96297779	0.38362768
239	0.952	-0.0072963514	-0.0079029806	-0.10173798	0.34782813	0.091893976	0.11448923	-0.13905819	0.023281646	-0.13775974	0.20838379	0.1228227	0.12209729	-0.13132474	0.050781358	-0.055640995	0.2458261	0.1363924	0.039509971	-0.2077449	-0.00075632534	-0.095337936	0.1662496	0.092848723	0.070054061	-0.035000162	0.39585846	-0.17915048	0.29543435	0.50550241	0.10892527	-0.037125946	0.37944879	-0.057657021	0.32044687	0.51218873	-0.018881651	0.040246004	0.78580499	-0.24699263	0.045833031	0.82398699	0.13331912	0.10580688	0.89331484	-0.18245722	0.11216425	0.91639812	0.057152143	-0.084615639	0.92552862	-0.062262641	0.10785448	1.3700153	-0.23419008	0.04105791	1.393018	0.072210719	-0.0024550276	1.4048429	-0.10330579	0.093556063	1.0468046	-0.37220997	-0.10358216	1.1006343	0.19298589	0.30418255	0.92332568	-0.41316602	-0.022626234	0.96494349	0.38602417
240	0.956	-0.0072309949	-0.0078648556	-0.1017389	0.36909783	0.090923275	0.11222606	-0.1390928	0.023806556	-0.13731619	0.22909188	0.11857261	0.12071696	-0.13097097	0.051306037	-0.055298402	0.26562794	0.1336714	0.038228178	-0.2075965	3.2953975e-05	-0.09474304	0.18736934	0.088064971	0.068550764	-0.034147205	0.39617455	-0.17895613	0.30286367	0.50516988	0.10850675	-0.036751719	0.37964568	-0.057204233	0.32718613	0.51227469	-0.019031464	0.045696662	0.78540217	-0.24698798	0.054050109	0.82390719	0.13346905	0.11069529	0.89313604	-0.18326139	0.11906389	0.9160472	0.056761117	-0.078379628	0.92514568	-0.060243381	0.11371808	1.3698852	-0.23414436	0.047241739	1.3928091	0.072011346	0.0035118134	1.4044278	-0.10359601	0.10319346	1.0469851	-0.37336463	-0.098934186	1.1017413	0.19332825	0.3162101	0.92681368	-0.41300111	-0.021543847	0.96691795	0.38836391
241	0.96	-0.0071560394	-0.0078272266	-0.10173704	0.39023308	0.090084234	0.10977277	-0.13909513	0.024369855	-0.1368436	0.24979397	0.11458214	0.11920647	-0.13061293	0.0518686	-0.054901356	0.28533324	0.13126081	0.036817935	-0.20743386	0.00088991864	-0.094146692	0.20838592	0.083667958	0.066946488	-0.033399925	0.39650421	-0.17867883	0.31017509	0.50461442	0.10811469	-0.036145802	0.37993838	-0.056881458	0.33376761	0.51209344	-0.01911879	0.051370536	0.78506287	-0.24715826	0.062300324	0.82378869	0.13357913	0.11585637	0.89287069	-0.18412923	0.12602434	0.91569961	0.05639739	-0.072402168	0.92482402	-0.057976327	0.1196034	1.3696918	-0.23409096	0.053442263	1.3925423	0.071804767	0.0094685654	1.4039496	-0.10389613	0.11276871	1.0471064	-0.37443416	-0.094241795	1.1027768	0.19363391	0.32818764	0.93029845	-0.41272598	-0.020354149	0.96889657	0.39064656
242	0.964	-0.0070787108	-0.0078154228	-0.10171777	0.41119006	0.089411364	0.10713926	-0.13906538	0.024981559	-0.1363936	0.27037077	0.11090019	0.11760165	-0.13023445	0.052472319	-0.054475918	0.30490657	0.12918031	0.035286699	-0.20727935	0.0018075316	-0.093584806	0.22926551	0.079650676	0.065268225	-0.032687897	0.39685824	-0.17835907	0.31738552	0.50382727	0.10773841	-0.035362517	0.38032937	-0.056671678	0.34026115	0.51165211	-0.019171525	0.056759615	0.78481597	-0.24753626	0.070576681	0.82363505	0.13366192	0.12118962	0.892509	-0.18506492	0.13307909	0.91537217	0.056078593	-0.066949066	0.92475197	-0.055053285	0.12552168	1.3694383	-0.2340369	0.059669476	1.3922181	0.071592829	0.015471198	1.4034319	-0.10407849	0.12232553	1.0472273	-0.37545296	-0.089528518	1.1037485	0.19391133	0.34008065	0.9337785	-0.41237752	-0.019079947	0.97087849	0.39287226
